<?xml version="1.0" encoding="iso-8859-1"?>
<!-- Generator: Adobe Illustrator 23.0.1, SVG Export Plug-In . SVG Version: 6.00 Build 0)  -->
<svg version="1.1" id="Camada_1" xmlns="http://www.w3.org/2000/svg" xmlns:xlink="http://www.w3.org/1999/xlink" x="0px" y="0px"
	 viewBox="0 0 382.32 510.84" style="enable-background:new 0 0 382.32 510.84;" xml:space="preserve">
<rect x="36.226" y="22.239" style="fill:#444242;" width="17.28" height="483.547"/>
<path style="fill:#444242;" d="M326.386,11.436v4.502c0,3.48-2.821,6.302-6.302,6.302H12.417c-3.48,0-6.302-2.821-6.302-6.302
	v-4.502c0-3.48,2.821-6.302,6.302-6.302h307.667C323.564,5.134,326.386,7.955,326.386,11.436z"/>
<g id="cabeca">
	<circle style="fill:none;stroke:#000000;stroke-width:2;stroke-miterlimit:10;" cx="274.374" cy="125.229" r="45.038"/>
</g>
<path style="fill:none;stroke:#000000;stroke-width:2;stroke-miterlimit:10;" d="M274.374,22.239c0,32.032,0,57.951,0,57.951"/>
<g id="Tronco">
	<path style="fill:none;stroke:#000000;stroke-width:2;stroke-miterlimit:10;" d="M274.374,170.267c0,64.721,0,117.092,0,117.092"/>
</g>
<g id="Braco_Esquerdo">
	<path style="fill:none;stroke:#000000;stroke-width:2;stroke-miterlimit:10;" d="M276.34,215.66
		c35.71,34.455,66.542,57.566,98.092-14.794"/>
</g>
<g id="Braco_Direito">
	<path style="fill:none;stroke:#000000;stroke-width:2;stroke-miterlimit:10;" d="M274.374,214.676
		c-23.45-43.731-66.788-2.289-95.948,47.391"/>
</g>
<g id="Perna_Direita">
	<path style="fill:none;stroke:#000000;stroke-width:2;stroke-miterlimit:10;" d="M274.496,286.339
		c-23.258,11.19,16.857,134.45-68.351,112.168"/>
</g>
<g id="Perna_Esquerda">
	<path style="fill:none;stroke:#000000;stroke-width:2;stroke-miterlimit:10;" d="M376.409,383.126
		c-28.648,23.769-87.654-23.677-102.047-97.4"/>
</g>
</svg>
