<svg width="331" height="331" viewBox="0 0 331 331" fill="none" xmlns="http://www.w3.org/2000/svg">
    <path opacity="0.3" d="M165.502 331C74.2426 331 0 256.757 0 165.5C0 74.2426 74.2426 0 165.502 0C256.757 0 331 74.2426 331 165.5C331 256.757 256.757 331 165.502 331ZM165.502 1.16324C74.8876 1.16324 1.16324 74.8859 1.16324 165.5C1.16324 256.114 74.8876 329.837 165.502 329.837C256.116 329.837 329.835 256.114 329.835 165.5C329.835 74.8859 256.117 1.16324 165.502 1.16324ZM165.502 317.805C81.5193 317.805 13.1937 249.481 13.1937 165.497C13.1937 81.5128 81.5193 13.1904 165.502 13.1904C249.481 13.1904 317.805 81.5145 317.805 165.498C317.805 249.482 249.481 317.805 165.502 317.805ZM165.502 14.3537C82.1594 14.3537 14.3585 82.1546 14.3585 165.497C14.3585 248.839 82.1594 316.641 165.502 316.641C248.839 316.641 316.641 248.841 316.641 165.498C316.641 82.1562 248.839 14.3537 165.502 14.3537ZM165.502 304.613C88.7961 304.613 26.389 242.206 26.389 165.498C26.389 88.7912 88.7961 26.3841 165.502 26.3841C242.207 26.3841 304.609 88.7912 304.609 165.498C304.609 242.206 242.209 304.613 165.502 304.613ZM165.502 27.5473C89.4362 27.5473 27.5522 89.4313 27.5522 165.498C27.5522 241.565 89.4362 303.449 165.502 303.449C241.562 303.449 303.446 241.565 303.446 165.498C303.446 89.4313 241.562 27.5473 165.502 27.5473ZM165.502 291.419C96.0728 291.419 39.5842 234.93 39.5842 165.497C39.5842 96.0631 96.0728 39.5761 165.502 39.5761C234.93 39.5761 291.414 96.0647 291.414 165.498C291.414 234.932 234.93 291.419 165.502 291.419ZM165.502 40.7394C96.7129 40.7394 40.7475 96.7048 40.7475 165.498C40.7475 234.292 96.7129 290.257 165.502 290.257C234.29 290.257 290.251 234.292 290.251 165.498C290.251 96.7048 234.29 40.7394 165.502 40.7394ZM165.502 278.227C103.345 278.227 52.7795 227.657 52.7795 165.498C52.7795 103.34 103.346 52.7682 165.502 52.7682C227.654 52.7682 278.219 103.338 278.219 165.497C278.219 227.655 227.654 278.227 165.502 278.227ZM165.502 53.9314C103.986 53.9314 53.9428 103.98 53.9428 165.497C53.9428 227.014 103.986 277.062 165.502 277.062C227.012 277.062 277.056 227.014 277.056 165.497C277.056 103.98 227.014 53.9314 165.502 53.9314ZM165.502 265.035C110.621 265.035 65.9732 220.382 65.9732 165.498C65.9732 110.615 110.623 65.9602 165.502 65.9602C220.377 65.9602 265.025 110.613 265.025 165.497C265.025 220.38 220.377 265.035 165.502 265.035ZM165.502 67.1251C111.263 67.1251 67.1381 111.255 67.1381 165.498C67.1381 219.742 111.263 263.872 165.502 263.872C219.735 263.872 263.862 219.742 263.862 165.498C263.862 111.255 219.737 67.1251 165.502 67.1251ZM165.502 251.841C117.9 251.841 79.1685 213.107 79.1685 165.497C79.1685 117.887 117.898 79.1522 165.502 79.1522C213.105 79.1522 251.83 117.887 251.83 165.497C251.83 213.107 213.105 251.841 165.502 251.841ZM165.502 80.3171C118.54 80.3171 80.3317 118.529 80.3317 165.498C80.3317 212.468 118.54 250.68 165.502 250.68C212.463 250.68 250.667 212.468 250.667 165.498C250.667 118.529 212.463 80.3171 165.502 80.3171ZM165.502 238.649C125.172 238.649 92.3638 205.835 92.3638 165.498C92.3638 125.162 125.172 92.3475 165.502 92.3475C205.827 92.3475 238.635 125.162 238.635 165.498C238.635 205.835 205.828 238.649 165.502 238.649ZM165.502 93.5091C125.817 93.5091 93.527 125.804 93.527 165.497C93.527 205.19 125.817 237.484 165.502 237.484C205.187 237.484 237.471 205.19 237.471 165.497C237.471 125.804 205.187 93.5091 165.502 93.5091ZM165.502 225.457C132.448 225.457 105.559 198.561 105.559 165.498C105.559 132.435 132.448 105.54 165.502 105.54C198.55 105.54 225.439 132.435 225.439 165.498C225.439 198.561 198.55 225.457 165.502 225.457ZM165.502 106.703C133.09 106.703 106.722 133.079 106.722 165.498C106.722 197.918 133.09 224.294 165.502 224.294C197.91 224.294 224.276 197.918 224.276 165.498C224.276 133.079 197.91 106.703 165.502 106.703ZM165.502 212.263C139.725 212.263 118.754 191.285 118.754 165.497C118.754 139.709 139.727 118.73 165.502 118.73C191.276 118.73 212.246 139.709 212.246 165.497C212.246 191.285 191.278 212.263 165.502 212.263ZM165.502 119.895C140.367 119.895 119.918 140.352 119.918 165.497C119.918 190.641 140.367 211.099 165.502 211.099C190.633 211.099 211.081 190.64 211.081 165.497C211.081 140.354 190.633 119.895 165.502 119.895ZM165.502 199.071C147.002 199.071 131.948 184.011 131.948 165.498C131.948 146.986 147.002 131.925 165.502 131.925C184.001 131.925 199.05 146.986 199.05 165.498C199.05 184.011 184.001 199.071 165.502 199.071ZM165.502 133.087C147.644 133.087 133.111 147.624 133.111 165.497C133.111 183.369 147.642 197.907 165.502 197.907C183.361 197.907 197.887 183.369 197.887 165.497C197.887 147.624 183.361 133.087 165.502 133.087ZM165.502 185.878C154.275 185.878 145.143 176.734 145.143 165.497C145.143 154.259 154.275 145.116 165.502 145.116C176.725 145.116 185.855 154.259 185.855 165.497C185.855 176.734 176.725 185.878 165.502 185.878ZM165.502 146.281C154.915 146.281 146.307 154.901 146.307 165.498C146.307 176.096 154.915 184.716 165.502 184.716C176.083 184.716 184.692 176.096 184.692 165.498C184.692 154.901 176.083 146.281 165.502 146.281ZM165.502 172.686C161.552 172.686 158.339 169.461 158.339 165.497C158.339 161.533 161.552 158.308 165.502 158.308C169.446 158.308 172.66 161.533 172.66 165.497C172.66 169.461 169.448 172.686 165.502 172.686ZM165.502 159.473C162.192 159.473 159.502 162.174 159.502 165.497C159.502 168.819 162.192 171.521 165.502 171.521C168.806 171.521 171.497 168.819 171.497 165.497C171.497 162.174 168.806 159.473 165.502 159.473Z" fill="black">
        <animateTransform attributeName="transform" begin="0s" dur="8s" type="scale" values="0.8 0.8; 1 1; 0.8 0.8" repeatCount="indefinite" />
    </path>
</svg>
